<svg preserveAspectRatio="xMidYMid meet" viewBox="122.88 417.792 790.528 169.984" xmlns="http://www.w3.org/2000/svg" version="1.0" style="max-height: 500px" width="790.528" height="169.984">

<g stroke="none" fill="#000000" transform="translate(0.000000,1024.000000) scale(0.100000,-0.100000)">
<path d="M2342 5938 c-20 -20 -13 -45 21 -71 65 -50 237 -213 277 -264 42 -53&#10;67 -64 100 -43 12 8 15 41 15 197 l0 188 -200 3 c-148 2 -204 -1 -213 -10z"/>
<path d="M2277 5574 c-98 -96 -182 -174 -185 -174 -4 1 -45 37 -92 80 -89 84&#10;-111 96 -146 83 -12 -4 -135 -119 -273 -254 -221 -216 -251 -249 -251 -277 0&#10;-37 39 -72 82 -72 25 0 63 33 244 210 119 116 220 210 225 210 5 0 45 -34 88&#10;-75 59 -56 88 -77 114 -82 33 -5 41 0 133 85 55 50 154 146 222 214 l122 123&#10;-52 52 -53 51 -178 -174z"/>
<path d="M7502 5635 c-52 -43 -51 -95 1 -152 41 -45 131 -22 161 41 15 31 15&#10;39 2 69 -29 70 -108 89 -164 42z"/>
<path d="M3300 5151 l0 -471 235 0 c276 0 313 8 385 86 50 54 67 93 74 165 4&#10;44 1 63 -20 106 -24 50 -86 112 -126 126 -21 8 -24 27 -4 27 19 0 75 66 93&#10;109 34 80 -3 193 -83 259 -63 52 -103 60 -340 61 l-214 2 0 -470z m401 319&#10;c108 -30 118 -182 14 -226 -23 -9 -71 -14 -145 -14 l-110 0 0 125 0 125 103 0&#10;c56 0 118 -5 138 -10z m53 -409 c55 -27 81 -73 73 -128 -14 -86 -80 -118 -247&#10;-118 l-115 0 -3 138 -3 139 123 -4 c105 -3 130 -6 172 -27z"/>
<path d="M6047 5613 l-78 -4 3 -164 c2 -91 0 -165 -3 -165 -4 0 -12 7 -20 16&#10;-19 24 -99 61 -147 69 -69 11 -163 -19 -221 -71 -73 -65 -105 -145 -108 -260&#10;-3 -130 31 -227 104 -296 79 -75 221 -95 320 -45 28 15 58 36 67 48 15 22 15&#10;21 22 -19 l7 -42 68 0 69 0 0 470 c0 259 -1 469 -2 468 -2 -1 -38 -4 -81 -5z&#10;m-164 -419 c69 -35 87 -73 87 -180 0 -87 -20 -135 -72 -174 -27 -21 -44 -25&#10;-98 -25 -120 0 -161 50 -164 200 -1 91 30 155 89 181 42 18 120 17 158 -2z"/>
<path d="M6210 5616 c0 -2 12 -48 26 -101 14 -53 27 -106 29 -117 3 -11 12&#10;-46 21 -77 9 -31 18 -67 20 -81 3 -14 7 -33 10 -42 3 -10 7 -30 10 -45 2 -16&#10;9 -39 14 -53 8 -22 37 -131 45 -170 2 -8 13 -53 25 -100 12 -47 24 -96 26&#10;-109 3 -14 7 -28 10 -33 3 -4 49 -8 103 -8 l97 0 28 113 c15 61 31 126 36 142&#10;5 17 16 56 25 88 9 32 18 66 20 75 6 32 25 107 43 176 l19 69 17 -69 c10 -38&#10;19 -76 21 -84 2 -8 14 -55 28 -105 14 -49 30 -112 36 -140 6 -27 23 -98 38&#10;-157 l27 -108 98 0 97 0 14 53 c15 54 154 629 189 777 10 47 21 91 23 98 3 9&#10;-19 12 -92 12 -53 0 -94 -3 -91 -6 4 -3 2 -20 -3 -37 -5 -18 -20 -86 -34 -152&#10;-13 -66 -35 -167 -49 -225 -13 -58 -27 -127 -31 -155 -9 -71 -16 -95 -26 -95&#10;-5 0 -9 7 -9 15 0 8 -12 54 -26 102 -14 49 -32 111 -39 138 -8 28 -25 93 -40&#10;145 -14 52 -27 104 -29 115 -3 11 -12 50 -22 88 l-17 67 -81 0 -82 0 -28 -107&#10;c-15 -60 -29 -117 -32 -127 -2 -11 -10 -40 -18 -65 -7 -25 -21 -73 -30 -106&#10;-9 -33 -27 -100 -40 -150 -14 -49 -27 -99 -29 -110 -4 -22 -11 1 -41 135 -9&#10;41 -24 104 -32 140 -8 36 -20 85 -25 110 -6 25 -19 79 -29 120 -11 41 -23 93&#10;-27 115 l-9 40 -92 3 c-51 1 -92 1 -92 -2z"/>
<path d="M4264 5355 c-81 -25 -125 -59 -167 -127 -34 -55 -26 -63 63 -63 76 0&#10;81 1 93 25 23 46 124 64 187 32 40 -20 60 -53 60 -102 l0 -35 -138 -1 c-117&#10;-1 -144 -5 -182 -23 -56 -26 -69 -37 -100 -81 -21 -29 -25 -46 -25 -106 1 -60&#10;5 -78 27 -112 71 -106 244 -131 370 -53 47 30 48 30 49 8 1 -12 1 -25 0 -29 0&#10;-5 35 -8 80 -8 l81 0 -4 253 -3 252 -28 55 c-16 32 -43 65 -63 79 -67 46 -213&#10;64 -300 36z m236 -394 c0 -100 -62 -161 -166 -164 -64 -1 -104 23 -118 71 -17&#10;60 30 100 129 109 28 3 52 7 54 9 2 2 26 4 53 4 46 0 48 -1 48 -29z"/>
<path d="M5070 5359 c-54 -15 -82 -30 -117 -63 l-33 -30 0 42 0 42 -75 0 -75&#10;0 0 -335 0 -335 80 0 80 0 0 221 c0 184 3 225 16 247 25 42 61 63 118 69 63 7&#10;108 -13 136 -60 18 -29 20 -51 20 -254 l0 -223 81 0 81 0 -4 248 c-3 225 -5&#10;251 -24 292 -23 51 -71 103 -116 126 -38 20 -122 26 -168 13z"/>
<path d="M7942 5360 c-169 -36 -238 -212 -126 -323 36 -37 64 -51 183 -93 118&#10;-43 141 -57 141 -89 0 -38 -43 -65 -106 -65 -63 0 -97 14 -115 46 -11 22 -18&#10;24 -91 24 -87 0 -84 4 -57 -66 16 -44 70 -93 125 -114 113 -42 283 -19 347 48&#10;30 31 57 100 57 144 0 70 -69 139 -180 182 -167 63 -185 72 -200 98 -13 25&#10;-13 29 6 55 43 57 137 52 193 -12 27 -31 33 -34 56 -25 15 6 38 10 53 10 46 0&#10;57 13 43 48 -42 100 -193 161 -329 132z"/>
<path d="M8580 5347 c-117 -40 -188 -129 -212 -265 -31 -184 65 -369 213 -409&#10;41 -11 184 -11 227 0 63 16 182 116 182 153 0 19 -154 41 -165 24 -4 -6 -24&#10;-19 -45 -30 -47 -24 -119 -26 -160 -5 -39 20 -77 72 -85 118 l-7 37 241 0 241&#10;0 0 40 c0 99 -37 199 -99 263 -41 44 -73 62 -140 83 -64 19 -115 17 -191 -9z&#10;m151 -109 c68 -23 100 -58 123 -135 l7 -22 -170 0 c-126 0 -171 3 -171 12 1&#10;28 40 96 67 115 23 17 74 37 104 41 3 1 21 -4 40 -11z"/>
<path d="M2405 5338 c-44 -26 -44 -25 -45 -429 l0 -386 25 -27 c24 -25 27 -26&#10;148 -26 111 0 127 2 151 21 l26 20 0 398 c0 480 17 435 -164 439 -80 1 -128&#10;-2 -141 -10z"/>
<path d="M7490 5015 l0 -335 80 0 80 0 0 335 0 335 -80 0 -80 0 0 -335z"/>
<path d="M1895 5035 l-25 -24 0 -244 c0 -312 -12 -291 170 -295 l132 -4 29 28&#10;29 28 0 243 0 244 -25 24 c-23 24 -29 25 -155 25 -126 0 -132 -1 -155 -25z"/>
<path d="M1420 4770 c-18 -18 -20 -33 -20 -134 0 -163 -2 -161 175 -161 172 0&#10;165 -7 165 160 0 160 6 155 -168 155 -119 0 -134 -2 -152 -20z"/>
</g>
</svg>