<?xml version="1.0" standalone="no"?>
<!DOCTYPE svg PUBLIC "-//W3C//DTD SVG 20010904//EN"
 "http://www.w3.org/TR/2001/REC-SVG-20010904/DTD/svg10.dtd">
<svg version="1.0" xmlns="http://www.w3.org/2000/svg"
 width="178.000000pt" height="178.000000pt" viewBox="0 0 178.000000 178.000000"
 preserveAspectRatio="xMidYMid meet">

<g transform="translate(0.000000,178.000000) scale(0.100000,-0.100000)"
fill="#000000" stroke="none">
<path d="M1172 1608 c-21 -21 -13 -45 22 -71 64 -50 234 -212 276 -264 42 -53
67 -64 100 -43 12 8 15 41 15 197 l0 188 -200 3 c-148 2 -204 -1 -213 -10z"/>
<path d="M1180 1318 c-52 -55 -132 -134 -177 -175 l-83 -75 -96 87 c-88 80
-99 87 -127 81 -23 -5 -70 -44 -167 -140 -74 -73 -188 -185 -253 -247 -101
-99 -117 -118 -117 -146 0 -44 42 -77 88 -69 27 4 75 45 243 211 115 113 214
205 219 205 6 0 46 -34 89 -75 59 -57 88 -77 114 -82 42 -6 51 1 314 261 l163
161 -52 52 c-29 29 -55 53 -58 52 -3 0 -48 -46 -100 -101z"/>
<path d="M1240 1013 c-8 -3 -23 -15 -32 -27 -16 -19 -18 -56 -18 -407 l0 -386
25 -27 c24 -25 27 -26 150 -26 120 0 127 1 150 25 l25 24 0 394 c0 476 17 431
-164 434 -66 1 -128 0 -136 -4z"/>
<path d="M725 705 l-25 -24 0 -244 c0 -312 -12 -291 170 -295 l132 -4 29 28
29 28 0 243 0 244 -25 24 c-23 24 -29 25 -155 25 -126 0 -132 -1 -155 -25z"/>
<path d="M246 438 c-12 -17 -16 -49 -16 -134 0 -161 -2 -159 175 -159 172 0
165 -7 165 160 0 161 6 155 -173 155 -129 0 -137 -1 -151 -22z"/>
</g>
</svg>
